#!OML:ASF E:\motion texture\Top Level 1\Subject 1\Session 1\male.ASF
:FULLY-SPECIFIED
:DEGREES
221
root 24.9805 17.1397 9.31263 -194.516 -85.4904 204.597
lowerback 12.681 -0.781637 7.5704
upperback 5.03918 -0.419003 5.89659
thorax -1.77619 -0.372769 1.98269
lowerneck -18.2972 -0.860069 -3.47472
upperneck -2.29964 -0.907641 4.36084
head 2.49586 -0.401241 1.99438
rclavicle 2.8625e-014 4.29375e-014
rhumerus -71.3998 -32.5262 -18.8804
rradius 38.1356
rwrist -25.049
rhand -17.6418 -51.0011
rfingers 7.12502
rthumb 8.61604 -80.8052
lclavicle 2.8625e-014 4.29375e-014
lhumerus -17.9985 9.57018 58.8642
lradius 54.8197
lwrist -12.6467
lhand -13.2202 32.3705
lfingers 7.12502
lthumb 12.8809 61.953
rfemur -31.1724 -1.70921 22.4176
rtibia 71.2375
rfoot 9.28154 -11.63
rtoes 3.6201
lfemur -36.4119 -4.99428 -17.3247
ltibia 39.5825
lfoot -11.6526 -4.19087
ltoes -2.08701
222
root 24.7899 17.1394 9.3059 -193.764 -85.8743 203.492
lowerback 12.4943 -0.697759 7.49438
upperback 4.90418 -0.313797 5.90997
thorax -1.81665 -0.318539 2.0219
lowerneck -18.3703 -1.01787 -3.60926
upperneck -2.03251 -1.0745 4.23215
head 2.60933 -0.481705 1.9656
rclavicle 2.38542e-015 9.54166e-015
rhumerus -72.3471 -33.9361 -17.6288
rradius 37.4182
rwrist -24.491
rhand -17.6715 -51.8835
rfingers 7.12502
rthumb 8.58735 -81.6888
lclavicle 2.38542e-015 9.54166e-015
lhumerus -17.3757 9.94028 59.0729
lradius 54.9072
lwrist -12.6815
lhand -13.501 32.4353
lfingers 7.12502
lthumb 12.6102 62.0347
rfemur -31.6003 -1.70148 22.1471
rtibia 71.4389
rfoot 8.83528 -11.6043
rtoes 4.03467
lfemur -35.6386 -5.28843 -17.7802
ltibia 39.9655
lfoot -11.8666 -4.55796
ltoes -1.69904
223
root 24.603 17.1425 9.29905 -192.744 -86.2621 202.15
lowerback 12.3114 -0.610652 7.41912
upperback 4.76844 -0.203756 5.92364
thorax -1.85977 -0.261986 2.06076
lowerneck -18.4405 -1.17683 -3.75022
upperneck -1.77628 -1.24093 4.10048
head 2.71887 -0.562984 1.93644
rclavicle -1.98785e-014 2.54444e-014
rhumerus -73.215 -35.4198 -16.5106
rradius 36.7546
rwrist -23.9418
rhand -17.6669 -52.762
rfingers 7.12502
rthumb 8.59181 -82.5672
lclavicle -1.98785e-014 2.54444e-014
lhumerus -16.7077 10.2293 59.3907
lradius 55.0012
lwrist -12.7216
lhand -13.7991 32.4435
lfingers 7.12502
lthumb 12.3229 62.0604
rfemur -32.045 -1.69366 21.8719
rtibia 71.5017
rfoot 8.31016 -11.6018
rtoes 4.42637
lfemur -34.8478 -5.57082 -18.2293
ltibia 40.272
lfoot -12.064 -4.90912
ltoes -1.35867
224
root 24.4199 17.1491 9.29209 -191.376 -86.652 200.49
lowerback 12.1302 -0.520468 7.34576
upperback 4.63109 -0.0890464 5.93733
thorax -1.90551 -0.203165 2.09836
lowerneck -18.5069 -1.33639 -3.89587
upperneck -1.53071 -1.40658 3.96604
head 2.82433 -0.644881 1.90668
rclavicle 1.59028e-015 6.99722e-014
rhumerus -73.9896 -36.9786 -15.5474
rradius 36.1502
rwrist -23.4193
rhand -17.6314 -53.6471
rfingers 7.12502
rthumb 8.62608 -83.4508
lclavicle 1.59028e-015 6.99722e-014
lhumerus -16.0005 10.43 59.8103
lradius 55.096
lwrist -12.7735
lhand -14.0967 32.41
lfingers 7.12502
lthumb 12.0359 62.0439
rfemur -32.5033 -1.68611 21.5914
rtibia 71.4205
rfoot 7.71351 -11.6264
rtoes 4.80827
lfemur -34.0431 -5.83966 -18.6705
ltibia 40.4994
lfoot -12.2413 -5.24442
ltoes -1.07159
225
root 24.2403 17.1592 9.285 -189.537 -87.0393 198.389
lowerback 11.9515 -0.427779 7.27618
upperback 4.49274 0.0296999 5.95072
thorax -1.95349 -0.142393 2.13342
lowerneck -18.5701 -1.49534 -4.04506
upperneck -1.29446 -1.57012 3.82853
head 2.92619 -0.7267 1.87615
rclavicle 7.95139e-016 -3.33958e-014
rhumerus -74.6445 -38.6102 -14.7733
rradius 35.6099
rwrist -22.9432
rhand -17.5678 -54.5416
rfingers 7.12502
rthumb 8.68741 -84.3429
lclavicle 7.95139e-016 -3.33958e-014
lhumerus -15.2616 10.5424 60.3228
lradius 55.1868
lwrist -12.8436
lhand -14.3939 32.3305
lfingers 7.12502
lthumb 11.7493 61.981
rfemur -32.9691 -1.67685 21.3052
rtibia 71.1903
rfoot 7.05165 -11.6802
rtoes 5.17043
lfemur -33.2235 -6.0932 -19.1018
ltibia 40.6447
lfoot -12.3978 -5.56263
ltoes -0.837868
226
root 24.0642 17.1724 9.27785 -187.021 -87.4197 195.643
lowerback 11.7738 -0.33271 7.2106
upperback 4.35274 0.152261 5.96396
thorax -2.00374 -0.0797867 2.16599
lowerneck -18.6275 -1.65255 -4.19642
upperneck -1.06727 -1.73035 3.68648
head 3.02393 -0.807888 1.8442
rclavicle 1.27222e-014 9.54166e-014
rhumerus -75.1511 -40.3139 -14.2205
rradius 35.1393
rwrist -22.5373
rhand -17.4869 -55.4528
rfingers 7.12502
rthumb 8.76553 -85.2508
lclavicle 1.27222e-014 9.54166e-014
lhumerus -14.5005 10.5603 60.9193
lradius 55.2741
lwrist -12.9258
lhand -14.6728 32.2377
lfingers 7.12502
lthumb 11.4803 61.9033
rfemur -33.4383 -1.66581 21.0118
rtibia 70.807
rfoot 6.33242 -11.7649
rtoes 5.52563
lfemur -32.3907 -6.33009 -19.5226
ltibia 40.7072
lfoot -12.5336 -5.86342
ltoes -0.649366
227
root 23.8915 17.1889 9.27057 -183.521 -87.7888 191.942
lowerback 11.596 -0.235424 7.14782
upperback 4.21173 0.278016 5.97803
thorax -2.05489 -0.0156701 2.19784
lowerneck -18.6789 -1.80742 -4.3491
upperneck -0.848917 -1.8866 3.53834
head 3.11744 -0.888166 1.81023
rclavicle -2.78299e-014 -1.74931e-014
rhumerus -75.4713 -42.0914 -13.924
rradius 34.7353
rwrist -22.2169
rhand -17.4262 -56.3635
rfingers 7.12502
rthumb 8.82408 -86.1591
lclavicle -2.78299e-014 -1.74931e-014
lhumerus -13.724 10.4825 61.5909
lradius 55.354
lwrist -13.0196
lhand -14.93 32.1227
lfingers 7.12502
lthumb 11.2323 61.802
rfemur -33.9061 -1.65176 20.7101
rtibia 70.2667
rfoot 5.56828 -11.8811
rtoes 5.86178
lfemur -31.5468 -6.54803 -19.9325
ltibia 40.6888
lfoot -12.6536 -6.14366
ltoes -0.4978
